<?xml version="1.0" standalone="no"?>
<!DOCTYPE svg PUBLIC "-//W3C//DTD SVG 20010904//EN"
 "http://www.w3.org/TR/2001/REC-SVG-20010904/DTD/svg10.dtd">
<svg version="1.0" xmlns="http://www.w3.org/2000/svg"
 width="200.000000pt" height="200.000000pt" viewBox="0 0 200.000000 200.000000"
 preserveAspectRatio="xMidYMid meet">

<g transform="translate(0.000000,200.000000) scale(0.100000,-0.100000)"
fill="#000000" stroke="none">
<path d="M868 1412 l-147 -86 0 -367 0 -368 79 -45 78 -46 124 72 c68 39 125
73 127 74 1 2 -29 99 -68 216 -39 117 -71 221 -71 231 0 10 8 17 20 17 11 0
20 3 20 8 0 12 -20 85 -29 107 -17 40 -41 111 -41 122 0 6 13 16 29 21 28 10
30 9 36 -21 9 -41 34 -122 53 -170 13 -32 19 -37 38 -33 20 5 24 0 39 -44 9
-28 18 -50 20 -50 2 0 4 80 4 178 l0 177 -27 16 c-15 8 -52 29 -82 46 l-55 31
-147 -86z m9 -184 c-10 -16 -13 -16 -28 -2 -16 14 -16 17 -1 34 14 17 17 18
28 2 8 -12 9 -21 1 -34z m0 -226 c8 -5 8 -11 -1 -24 -12 -17 -14 -17 -30 1
-13 15 -14 20 -4 24 19 8 22 8 35 -1z m0 -250 c8 -5 8 -11 -1 -24 -12 -17 -14
-17 -30 1 -13 15 -14 20 -4 24 19 8 22 8 35 -1z"/>
</g>
</svg>
