<?xml version="1.0" standalone="no"?>
<!DOCTYPE svg PUBLIC "-//W3C//DTD SVG 20010904//EN"
 "http://www.w3.org/TR/2001/REC-SVG-20010904/DTD/svg10.dtd">
<svg version="1.0" xmlns="http://www.w3.org/2000/svg"
 width="200.000000pt" height="200.000000pt" viewBox="0 0 200.000000 200.000000"
 preserveAspectRatio="xMidYMid meet">

<g transform="translate(0.000000,200.000000) scale(0.100000,-0.100000)"
fill="#000000" stroke="none">
<path d="M318 1494 l-146 -85 0 -367 0 -367 74 -42 c40 -24 78 -43 84 -43 13
0 239 130 246 141 3 5 -27 107 -65 227 -39 120 -71 221 -71 224 0 3 9 8 21 11
24 7 22 24 -18 140 -13 40 -26 79 -29 88 -4 10 4 20 22 27 14 7 28 11 30 9 5
-4 33 -101 38 -127 1 -8 10 -32 19 -54 10 -21 17 -43 17 -48 0 -5 12 -7 28 -4
26 6 28 4 43 -46 l16 -53 1 182 1 183 -69 40 c-38 22 -75 42 -82 45 -7 3 -79
-34 -160 -81z m12 -184 c-13 -14 -16 -14 -26 -1 -8 11 -9 20 -1 32 9 15 11 15
26 0 14 -14 14 -18 1 -31z m3 -226 c14 -5 13 -8 -1 -23 -15 -15 -18 -15 -29
-2 -18 25 -3 38 30 25z m0 -250 c14 -5 13 -8 -1 -23 -15 -15 -18 -15 -29 -2
-18 25 -3 38 30 25z"/>
<path d="M776 1098 c-20 -105 -21 -98 14 -98 24 0 30 4 30 23 0 12 4 28 9 36
7 11 12 6 18 -20 8 -29 14 -34 41 -37 l32 -3 -22 56 -21 56 26 27 c15 16 27
31 27 35 0 18 -26 4 -57 -30 l-33 -38 6 38 c6 36 5 37 -24 37 -29 0 -30 -1
-46 -82z"/>
<path d="M965 1168 c-2 -7 -9 -38 -15 -68 -6 -30 -13 -65 -16 -77 -5 -20 -2
-23 24 -23 30 0 31 1 47 78 9 42 18 83 20 90 3 8 -6 12 -26 12 -16 0 -31 -6
-34 -12z"/>
<path d="M1045 1103 c-9 -43 -18 -84 -20 -90 -3 -9 6 -13 26 -13 30 0 32 2 44
55 l7 30 12 -40 c10 -35 16 -40 44 -43 37 -4 37 -5 17 42 -14 34 -14 37 5 56
45 45 19 80 -61 80 l-58 0 -16 -77z m98 50 c3 -5 1 -18 -4 -30 -9 -25 -41 -32
-34 -8 3 8 7 22 10 30 5 16 21 20 28 8z"/>
<path d="M1240 1173 c0 -5 -9 -45 -19 -91 l-19 -83 31 3 c23 2 33 9 35 23 7
46 14 50 26 15 10 -29 18 -36 44 -38 l32 -3 -20 46 c-25 59 -25 61 6 102 36
47 5 44 -36 -4 l-31 -38 6 38 c6 36 5 37 -25 37 -16 0 -30 -3 -30 -7z"/>
<path d="M1397 1098 c-21 -104 -22 -98 11 -98 28 0 29 3 45 78 22 101 22 102
-11 102 -27 0 -29 -3 -45 -82z"/>
<path d="M1490 1170 c0 -5 11 -10 23 -10 l24 0 -18 -81 -17 -80 31 3 c31 3 32
4 46 81 13 69 17 77 37 77 13 0 26 5 29 10 4 6 -23 10 -74 10 -47 0 -81 -4
-81 -10z"/>
</g>
</svg>
